# xmcd
#
# Track frame offsets: 
#        150
#        20577
#        36602
#        64955
#        79352
#        96640
#        123558
#        142346
#        163396
#        189117
#        206925
#        227693
#        245991
#
# Disc length: 3511 seconds
#
# Revision: 0
# Processed by: cddbd v1.5.2PL0 Copyright (c) Steve Scherf et al.
# Submitted via: ExactAudioCopy v0.95a5
#
DISCID=d60db50d
DTITLE=Giles Corey's - Stoned Soul
DYEAR=2014
DGENRE=Blues
TTITLE0=Oh, Mademoiselle
TTITLE1=Morning Train
TTITLE2=Don't Let The Green Grass Fool You
TTITLE3=Time Files ( When You Are Drunk)
TTITLE4=Pork and Beans
TTITLE5=Bright Lights
TTITLE6=Rita
TTITLE7=Right On
TTITLE8=It's All Been Before
TTITLE9=Watch Myself Go Crazy
TTITLE10=That Girl Is Bad
TTITLE11=Home Is On My Mind
TTITLE12=Every Time I See Your Face
EXTD=
EXTT0=
EXTT1=
EXTT2=
EXTT3=
EXTT4=
EXTT5=
EXTT6=
EXTT7=
EXTT8=
EXTT9=
EXTT10=
EXTT11=
EXTT12=
PLAYORDER=
